<svg width="35" height="35" viewBox="0 0 35 35" fill="none" xmlns="http://www.w3.org/2000/svg">
<g clip-path="url(#clip0_63_556)">
<path d="M31.111 5.83331H3.88878C3.37308 5.83331 2.8785 6.03817 2.51385 6.40283C2.1492 6.76748 1.94434 7.26206 1.94434 7.77776V27.2222C1.94434 27.7379 2.1492 28.2325 2.51385 28.5971C2.8785 28.9618 3.37308 29.1666 3.88878 29.1666H31.111C31.6267 29.1666 32.1213 28.9618 32.4859 28.5971C32.8506 28.2325 33.0554 27.7379 33.0554 27.2222V7.77776C33.0554 7.26206 32.8506 6.76748 32.4859 6.40283C32.1213 6.03817 31.6267 5.83331 31.111 5.83331ZM29.6138 27.2222H5.50267L12.3082 20.1833L10.9082 18.8319L3.88878 26.0944V9.25554L15.9735 21.2819C16.3378 21.6441 16.8306 21.8474 17.3443 21.8474C17.858 21.8474 18.3509 21.6441 18.7152 21.2819L31.111 8.95415V25.968L23.9554 18.8125L22.5846 20.1833L29.6138 27.2222ZM5.16239 7.77776H29.536L17.3443 19.9014L5.16239 7.77776Z" fill="#ED4D5D"/>
</g>
<defs>
<clipPath id="clip0_63_556">
<rect width="35" height="35" fill="white"/>
</clipPath>
</defs>
</svg>
