<svg width="21" height="21" viewBox="0 0 21 21" fill="none" xmlns="http://www.w3.org/2000/svg">
<g clip-path="url(#clip0_14_432)">
<path d="M20.0634 19.15L14.3967 13.4167C14.9745 12.75 15.4079 11.9944 15.6967 11.15C15.9856 10.3055 16.1301 9.41665 16.1301 8.48332C16.1301 7.0611 15.7856 5.73888 15.0967 4.51665C14.4079 3.29443 13.4523 2.32776 12.2301 1.61665C11.0079 0.905542 9.68563 0.549986 8.26341 0.549986C6.84119 0.549986 5.51897 0.905542 4.29675 1.61665C3.07452 2.32776 2.10786 3.29443 1.39674 4.51665C0.685634 5.73888 0.330078 7.0611 0.330078 8.48332C0.330078 9.90554 0.685634 11.2278 1.39674 12.45C2.10786 13.6722 3.07452 14.6278 4.29675 15.3167C5.51897 16.0055 6.84119 16.35 8.26341 16.35C9.19674 16.35 10.0856 16.2055 10.9301 15.9167C11.7745 15.6278 12.5301 15.1944 13.1967 14.6167L18.9301 20.2833C19.0634 20.4611 19.2523 20.55 19.4967 20.55C19.7412 20.55 19.9412 20.4722 20.0967 20.3167C20.2523 20.1611 20.3301 19.9611 20.3301 19.7167C20.3301 19.4722 20.2412 19.2833 20.0634 19.15ZM8.26341 14.6833C7.10786 14.6833 6.0523 14.4055 5.09675 13.85C4.14119 13.2944 3.38563 12.5389 2.83008 11.5833C2.27452 10.6278 1.99674 9.58332 1.99674 8.44999C1.99674 7.31665 2.27452 6.27221 2.83008 5.31665C3.38563 4.3611 4.14119 3.60554 5.09675 3.04999C6.0523 2.49443 7.09675 2.21665 8.23008 2.21665C9.36341 2.21665 10.4079 2.49443 11.3634 3.04999C12.319 3.60554 13.0745 4.3611 13.6301 5.31665C14.1856 6.27221 14.4634 7.31665 14.4634 8.44999C14.4634 9.58332 14.1856 10.6278 13.6301 11.5833C13.0745 12.5389 12.319 13.2944 11.3634 13.85C10.4079 14.4055 9.37452 14.6833 8.26341 14.6833Z" fill="white"/>
</g>
<defs>
<clipPath id="clip0_14_432">
<rect width="20" height="20" fill="white" transform="matrix(1 0 0 -1 0.330078 20.55)"/>
</clipPath>
</defs>
</svg>
