<svg width="15" height="15" viewBox="0 0 15 15" fill="none" xmlns="http://www.w3.org/2000/svg">
<g clip-path="url(#clip0_14_375)">
<path d="M11.4688 0.560059H4.03125C2.22656 0.560059 0.75 2.03662 0.75 3.84131V11.2788C0.75 13.0835 2.22656 14.5601 4.03125 14.5601H11.4688C13.2734 14.5601 14.75 13.0835 14.75 11.2788V3.84131C14.75 2.03662 13.2734 0.560059 11.4688 0.560059ZM13.9297 11.2788C13.9297 12.6187 12.8086 13.7397 11.4688 13.7397H4.03125C2.69141 13.7397 1.57031 12.6187 1.57031 11.2788V6.32959H4.22266C3.97656 6.82178 3.83984 7.36865 3.83984 7.97021C3.83984 10.1304 5.58984 11.8804 7.75 11.8804C9.91016 11.8804 11.6602 10.1304 11.6602 7.97021C11.6602 7.36865 11.5234 6.82178 11.2773 6.32959H13.9297V11.2788ZM10.8398 7.97021C10.8398 9.66553 9.44531 11.0601 7.75 11.0601C6.05469 11.0601 4.66016 9.66553 4.66016 7.97021C4.66016 6.2749 6.05469 4.88037 7.75 4.88037C9.44531 4.88037 10.8398 6.2749 10.8398 7.97021ZM10.7578 5.50928C10.0469 4.63428 8.95312 4.06006 7.75 4.06006C6.54688 4.06006 5.45312 4.63428 4.74219 5.50928H1.57031V3.84131C1.57031 2.50146 2.69141 1.38037 4.03125 1.38037H11.4688C12.8086 1.38037 13.9297 2.50146 13.9297 3.84131V5.50928H10.7578ZM12.6445 2.80225V3.86865C12.6445 4.11475 12.4531 4.30615 12.207 4.30615H11.0859C10.8398 4.30615 10.6211 4.11475 10.6211 3.86865V2.80225C10.6211 2.55615 10.8398 2.36475 11.0859 2.36475H12.207C12.4531 2.36475 12.6445 2.55615 12.6445 2.80225Z" fill="white"/>
</g>
<defs>
<clipPath id="clip0_14_375">
<rect width="14" height="14" fill="white" transform="matrix(1 0 0 -1 0.75 14.5601)"/>
</clipPath>
</defs>
</svg>
