<svg width="15" height="15" viewBox="0 0 15 15" fill="none" xmlns="http://www.w3.org/2000/svg">
<g clip-path="url(#clip0_14_378)">
<path d="M0.914062 5.34521H3.75781V13.8491H0.914062V5.34521ZM2.33594 1.271C1.37891 1.271 0.75 1.8999 0.75 2.72021C0.75 3.54053 1.35156 4.19678 2.30859 4.19678H2.33594C3.32031 4.19678 3.92188 3.54053 3.92188 2.72021C3.92188 1.8999 3.32031 1.271 2.33594 1.271ZM10.6758 5.15381C9.17188 5.15381 8.48828 5.97412 8.13281 6.57568V5.34521H5.31641C5.31641 5.34521 5.34375 6.16553 5.31641 13.8491H8.13281V9.11865C8.13281 8.84521 8.16016 8.59912 8.21484 8.40771C8.43359 7.91553 8.89844 7.396 9.66406 7.396C10.7031 7.396 11.1133 8.16162 11.1133 9.31006V13.8491H13.9297V8.98193C13.9297 6.38428 12.5352 5.15381 10.6758 5.15381Z" fill="white"/>
</g>
<defs>
<clipPath id="clip0_14_378">
<rect width="14" height="14" fill="white" transform="matrix(1 0 0 -1 0.75 14.5601)"/>
</clipPath>
</defs>
</svg>
