<svg width="156" height="59" viewBox="0 0 156 59" fill="none" xmlns="http://www.w3.org/2000/svg">
<g clip-path="url(#clip0_14_407)">
<g clip-path="url(#clip1_14_407)">
<g clip-path="url(#clip2_14_407)">
<path d="M65.3101 44.08C62.6834 44.08 60.5434 43.5 58.8901 42.34C57.2368 41.18 56.2234 39.5467 55.8501 37.44L60.1301 36.78C60.3968 37.9 61.0101 38.7867 61.9701 39.44C62.9434 40.08 64.1501 40.4 65.5901 40.4C66.8968 40.4 67.9168 40.1333 68.6501 39.6C69.3968 39.0667 69.7701 38.3333 69.7701 37.4C69.7701 36.8533 69.6368 36.4133 69.3701 36.08C69.1168 35.7333 68.5768 35.4067 67.7501 35.1C66.9234 34.7933 65.6634 34.4133 63.9701 33.96C62.1168 33.48 60.6434 32.9667 59.5501 32.42C58.4701 31.86 57.6968 31.2133 57.2301 30.48C56.7768 29.7333 56.5501 28.8333 56.5501 27.78C56.5501 26.4733 56.8968 25.3333 57.5901 24.36C58.2834 23.3867 59.2568 22.6333 60.5101 22.1C61.7768 21.5667 63.2568 21.3 64.9501 21.3C66.6034 21.3 68.0768 21.56 69.3701 22.08C70.6634 22.6 71.7101 23.34 72.5101 24.3C73.3101 25.2467 73.7901 26.36 73.9501 27.64L69.6701 28.42C69.5234 27.38 69.0368 26.56 68.2101 25.96C67.3834 25.36 66.3101 25.0333 64.9901 24.98C63.7234 24.9267 62.6968 25.14 61.9101 25.62C61.1234 26.0867 60.7301 26.7333 60.7301 27.56C60.7301 28.04 60.8768 28.4467 61.1701 28.78C61.4768 29.1133 62.0634 29.4333 62.9301 29.74C63.7968 30.0467 65.0768 30.4133 66.7701 30.84C68.5834 31.3067 70.0234 31.8267 71.0901 32.4C72.1568 32.96 72.9168 33.6333 73.3701 34.42C73.8368 35.1933 74.0701 36.1333 74.0701 37.24C74.0701 39.3733 73.2901 41.0467 71.7301 42.26C70.1834 43.4733 68.0434 44.08 65.3101 44.08ZM84.5954 44.1C82.9954 44.1 81.6554 43.8067 80.5754 43.22C79.4954 42.62 78.6754 41.8333 78.1154 40.86C77.5687 39.8733 77.2954 38.7933 77.2954 37.62C77.2954 36.5267 77.4887 35.5667 77.8754 34.74C78.2621 33.9133 78.8354 33.2133 79.5954 32.64C80.3554 32.0533 81.2887 31.58 82.3954 31.22C83.3554 30.94 84.4421 30.6933 85.6554 30.48C86.8687 30.2667 88.1421 30.0667 89.4754 29.88C90.8221 29.6933 92.1554 29.5067 93.4754 29.32L91.9554 30.16C91.9821 28.4667 91.6221 27.2133 90.8754 26.4C90.1421 25.5733 88.8754 25.16 87.0754 25.16C85.9421 25.16 84.9021 25.4267 83.9554 25.96C83.0087 26.48 82.3487 27.3467 81.9754 28.56L78.0754 27.36C78.6087 25.5067 79.6221 24.0333 81.1154 22.94C82.6221 21.8467 84.6221 21.3 87.1154 21.3C89.0487 21.3 90.7287 21.6333 92.1554 22.3C93.5954 22.9533 94.6487 23.9933 95.3154 25.42C95.6621 26.1267 95.8754 26.8733 95.9554 27.66C96.0354 28.4467 96.0754 29.2933 96.0754 30.2V43.5H92.3754V38.56L93.0954 39.2C92.2021 40.8533 91.0621 42.0867 89.6754 42.9C88.3021 43.7 86.6087 44.1 84.5954 44.1ZM85.3354 40.68C86.5221 40.68 87.5421 40.4733 88.3954 40.06C89.2487 39.6333 89.9354 39.0933 90.4554 38.44C90.9754 37.7867 91.3154 37.1067 91.4754 36.4C91.7021 35.76 91.8287 35.04 91.8554 34.24C91.8954 33.44 91.9154 32.8 91.9154 32.32L93.2754 32.82C91.9554 33.02 90.7554 33.2 89.6754 33.36C88.5954 33.52 87.6154 33.68 86.7354 33.84C85.8687 33.9867 85.0954 34.1667 84.4154 34.38C83.8421 34.58 83.3287 34.82 82.8754 35.1C82.4354 35.38 82.0821 35.72 81.8154 36.12C81.5621 36.52 81.4354 37.0067 81.4354 37.58C81.4354 38.14 81.5754 38.66 81.8554 39.14C82.1354 39.6067 82.5621 39.98 83.1354 40.26C83.7087 40.54 84.4421 40.68 85.3354 40.68ZM101.669 18.36V14.3H105.849V18.36H101.669ZM101.669 43.5V21.9H105.849V43.5H101.669ZM112.255 43.5V14.1H116.435V43.5H112.255ZM131.821 44.1C129.661 44.1 127.787 43.6133 126.201 42.64C124.614 41.6667 123.387 40.3267 122.521 38.62C121.667 36.9 121.241 34.92 121.241 32.68C121.241 30.4267 121.681 28.4467 122.561 26.74C123.441 25.02 124.674 23.6867 126.261 22.74C127.847 21.78 129.701 21.3 131.821 21.3C133.981 21.3 135.854 21.7867 137.441 22.76C139.027 23.7333 140.254 25.0733 141.121 26.78C141.987 28.4867 142.421 30.4533 142.421 32.68C142.421 34.9333 141.981 36.92 141.101 38.64C140.234 40.3467 139.007 41.6867 137.421 42.66C135.834 43.62 133.967 44.1 131.821 44.1ZM131.821 40.16C133.887 40.16 135.427 39.4667 136.441 38.08C137.467 36.68 137.981 34.88 137.981 32.68C137.981 30.4267 137.461 28.6267 136.421 27.28C135.394 25.92 133.861 25.24 131.821 25.24C130.421 25.24 129.267 25.56 128.361 26.2C127.454 26.8267 126.781 27.7 126.341 28.82C125.901 29.9267 125.681 31.2133 125.681 32.68C125.681 34.9467 126.201 36.76 127.241 38.12C128.281 39.48 129.807 40.16 131.821 40.16ZM146.754 43.5V39.08H151.174V43.5H146.754Z" fill="white"/>
<mask id="mask0_14_407" style="mask-type:luminance" maskUnits="userSpaceOnUse" x="0" y="7" width="45" height="45">
<path d="M44.25 7.5H0.25V51.5H44.25V7.5Z" fill="white"/>
</mask>
<g mask="url(#mask0_14_407)">
<path d="M20.0314 45.9122V46.9166H19.9828V46.9508H4.89166L5.13954 45.7513C5.18328 45.5319 5.22702 45.3222 5.27562 45.1272C5.32423 44.9322 5.37283 44.7371 5.42629 44.547L5.45545 44.4397L5.48461 44.3373L5.61583 43.8985C5.64985 43.7814 5.68875 43.6596 5.73249 43.5425C5.77623 43.4255 5.82482 43.2792 5.87343 43.1476C5.92203 43.0159 5.9998 42.8111 6.06785 42.66C6.13589 42.5088 6.18448 42.3723 6.25253 42.226C6.27683 42.1627 6.306 42.1041 6.33516 42.0456C6.39834 41.9042 6.45667 41.7775 6.51985 41.6556L6.59275 41.4995C6.65593 41.3679 6.72398 41.2362 6.79202 41.1143C6.86007 40.9925 6.84549 41.0071 6.88437 40.9388C6.97186 40.773 7.05447 40.6267 7.1371 40.4902C7.21972 40.3537 7.2975 40.2172 7.38984 40.0758L7.419 40.0222C7.44772 39.9834 7.4737 39.9427 7.49677 39.9003L7.53564 39.8466C7.62313 39.7052 7.72033 39.5541 7.8224 39.4127C7.92446 39.2713 8.05083 39.0811 8.18205 38.9251C8.31328 38.7691 8.3619 38.6813 8.4834 38.5253L8.5077 38.496L8.62434 38.3497C8.72154 38.2278 8.82362 38.1011 8.9354 37.9743L8.99859 37.9011C9.11038 37.7744 9.2173 37.6476 9.33395 37.5257L9.44088 37.4135C9.55752 37.2819 9.68389 37.1502 9.84914 36.9845C11.0826 35.7443 12.4949 34.6973 14.0387 33.8785H6.58789C2.53495 37.9909 0.264238 43.5423 0.269541 49.3253V51.6024H24.4785V31.7721V12.3808H24.5368H25.5381H39.6328L39.385 13.5851C38.5445 17.6717 36.2803 21.3243 32.9986 23.8878H39.3704C40.6483 22.3053 41.6987 20.5508 42.4907 18.6755C43.6351 15.9634 44.2267 13.0488 44.2306 10.1037V7.83154H20.0314V45.9122Z" fill="#FF5E14"/>
<path d="M4.78949 27.223V12.1419L5.98511 12.3808C9.35355 13.0542 12.4462 14.7175 14.8697 17.1592C15.0349 17.325 15.2002 17.5005 15.3557 17.676V11.6299C14.0277 10.6732 12.5982 9.86702 11.0933 9.22611C8.38973 8.08047 5.48371 7.49343 2.5489 7.50006H0.25V30.4167H15.3606V27.2084H4.78949V27.223Z" fill="#FF5E14"/>
<path d="M39.3705 30.4315V46.8388L38.1797 46.6048C34.8103 45.9331 31.7161 44.2715 29.2903 41.8313L29.1348 41.6753V47.5995C32.8007 50.14 37.1507 51.5006 41.6062 51.5002H43.9003V27.2231H29.1639V30.4315H39.3705Z" fill="#FF5E14"/>
</g>
</g>
</g>
</g>
<defs>
<clipPath id="clip0_14_407">
<rect width="155" height="58" fill="white" transform="translate(0.25 0.5)"/>
</clipPath>
<clipPath id="clip1_14_407">
<rect width="155" height="58" fill="white" transform="translate(0.25 0.5)"/>
</clipPath>
<clipPath id="clip2_14_407">
<rect width="155" height="58" fill="white" transform="translate(0.25 0.5)"/>
</clipPath>
</defs>
</svg>
