<svg width="35" height="35" viewBox="0 0 35 35" fill="none" xmlns="http://www.w3.org/2000/svg">
<path d="M21.082 5.25682C21.1098 5.15265 21.1578 5.05498 21.2234 4.96938C21.2889 4.88379 21.3707 4.81196 21.464 4.758C21.5574 4.70403 21.6604 4.66899 21.7673 4.65488C21.8742 4.64077 21.9828 4.64787 22.0869 4.67576C24.0682 5.19259 25.8759 6.22828 27.3238 7.67616C28.7717 9.12404 29.8074 10.9318 30.3242 12.9131C30.3521 13.0172 30.3592 13.1258 30.3451 13.2327C30.331 13.3396 30.296 13.4426 30.242 13.5359C30.188 13.6293 30.1162 13.7111 30.0306 13.7766C29.945 13.8421 29.8473 13.8902 29.7432 13.9179C29.6741 13.9364 29.6028 13.9456 29.5313 13.9453C29.3505 13.9454 29.1748 13.8858 29.0314 13.7758C28.888 13.6658 28.785 13.5115 28.7383 13.3369C28.2946 11.635 27.4051 10.0822 26.1614 8.83857C24.9178 7.59492 23.365 6.70541 21.6631 6.2617C21.5589 6.23393 21.4613 6.18589 21.3757 6.12035C21.2901 6.0548 21.2182 5.97303 21.1643 5.8797C21.1103 5.78637 21.0753 5.68332 21.0612 5.57644C21.0471 5.46956 21.0541 5.36095 21.082 5.25682ZM20.5693 10.6367C22.5586 11.1672 23.8328 12.4414 24.3633 14.4306C24.41 14.6052 24.513 14.7595 24.6564 14.8696C24.7998 14.9796 24.9755 15.0392 25.1563 15.039C25.2278 15.0393 25.2991 15.0301 25.3682 15.0117C25.4723 14.9839 25.57 14.9359 25.6556 14.8703C25.7412 14.8048 25.813 14.723 25.867 14.6297C25.921 14.5364 25.956 14.4333 25.9701 14.3264C25.9842 14.2196 25.9771 14.111 25.9492 14.0068C25.2656 11.4488 23.5512 9.73435 20.9932 9.05076C20.889 9.02293 20.7804 9.01589 20.6736 9.03003C20.5667 9.04417 20.4637 9.07921 20.3704 9.13317C20.1819 9.24214 20.0445 9.42151 19.9883 9.63182C19.9321 9.84212 19.9617 10.0661 20.0707 10.2546C20.1797 10.443 20.359 10.5805 20.5693 10.6367ZM31.4303 23.8984C31.196 25.6857 30.319 27.3264 28.963 28.514C27.6071 29.7017 25.865 30.3549 24.0625 30.3515C13.3574 30.3515 4.64845 21.6426 4.64845 10.9375C4.645 9.13559 5.29762 7.39405 6.48441 6.03819C7.6712 4.68233 9.31099 3.80486 11.0975 3.56971C11.5087 3.51973 11.9251 3.60453 12.284 3.81136C12.643 4.0182 12.9251 4.33591 13.0881 4.71678L15.9729 11.1562C16.1002 11.4478 16.1529 11.7664 16.1262 12.0834C16.0995 12.4004 15.9941 12.7058 15.8197 12.9719C15.8022 12.9989 15.783 13.025 15.7623 13.0498L12.8817 16.476C12.8642 16.5115 12.8551 16.5505 12.8551 16.5901C12.8551 16.6297 12.8642 16.6688 12.8817 16.7043C13.9289 18.848 16.1766 21.0793 18.3504 22.1252C18.3867 22.1417 18.4263 22.1496 18.4662 22.1482C18.5061 22.1468 18.5451 22.1361 18.5801 22.117L21.9557 19.2459C21.9798 19.2249 22.0054 19.2057 22.0322 19.1885C22.2971 19.0119 22.6019 18.9041 22.9189 18.875C23.2359 18.8459 23.5552 18.8963 23.8479 19.0217L30.3065 21.916C30.6823 22.0825 30.9945 22.3657 31.1969 22.7234C31.3993 23.0812 31.4811 23.4946 31.4303 23.9025V23.8984ZM29.8047 23.6961C29.8093 23.6389 29.7958 23.5817 29.7661 23.5327C29.7364 23.4836 29.692 23.4451 29.6393 23.4226L23.1793 20.5283C23.144 20.5147 23.1062 20.5089 23.0684 20.5112C23.0307 20.5136 22.9939 20.5241 22.9606 20.542L19.5863 23.4131C19.5617 23.4336 19.5358 23.4527 19.5098 23.4705C19.2345 23.654 18.9164 23.7631 18.5865 23.7871C18.2565 23.811 17.926 23.7491 17.6272 23.6072C15.117 22.3945 12.6151 19.9158 11.4024 17.4289C11.2597 17.1318 11.1962 16.8028 11.218 16.474C11.2398 16.1451 11.3462 15.8274 11.5268 15.5517C11.5444 15.5243 11.564 15.4983 11.5856 15.4738L14.4649 12.0476C14.4813 12.0118 14.4898 11.9729 14.4898 11.9335C14.4898 11.8941 14.4813 11.8551 14.4649 11.8193L11.5856 5.37439C11.5666 5.32267 11.5324 5.27789 11.4875 5.24593C11.4426 5.21397 11.3891 5.19632 11.334 5.19529H11.3026C9.91204 5.38026 8.6364 6.06502 7.71382 7.1217C6.79123 8.17838 6.2848 9.53473 6.28908 10.9375C6.28908 20.7375 14.2625 28.7109 24.0625 28.7109C25.4655 28.7152 26.822 28.2085 27.8787 27.2857C28.9354 26.3628 29.62 25.0868 29.8047 23.6961Z" fill="#ED4D5D"/>
</svg>
